<svg width="36" height="14" viewBox="0 0 36 14" fill="none" xmlns="http://www.w3.org/2000/svg">
<path d="M35.7778 5.81725H29.3667C29.0427 4.18916 28.1732 2.72856 26.909 1.68853C25.6447 0.648504 24.0653 0.0946015 22.4445 0.122807H13.7222C12.1052 0.0999566 10.531 0.656307 9.27137 1.69588C8.01171 2.73546 7.14552 4.19306 6.82223 5.81725H0.222229V8.09503H6.81112C7.12874 9.72423 7.99493 11.1872 9.25825 12.2281C10.5216 13.269 12.1016 13.8217 13.7222 13.7895H22.4445C24.065 13.8217 25.6451 13.269 26.9084 12.2281C28.1718 11.1872 29.0379 9.72423 29.3556 8.09503H35.7778V5.81725ZM16.9778 11.5117H13.7222C12.4988 11.5548 11.3084 11.0999 10.4111 10.2464C9.51379 9.39278 8.98252 8.20991 8.93334 6.95614C8.98252 5.70237 9.51379 4.5195 10.4111 3.66592C11.3084 2.81235 12.4988 2.35744 13.7222 2.40058H16.9889L16.9778 11.5117ZM22.4445 11.5117H19.1111V2.40058H22.4445C23.6679 2.35744 24.8583 2.81235 25.7556 3.66592C26.6529 4.5195 27.1842 5.70237 27.2333 6.95614C27.1842 8.20991 26.6529 9.39278 25.7556 10.2464C24.8583 11.0999 23.6679 11.5548 22.4445 11.5117Z" fill="white"/>
</svg>
