<svg width="24" height="25" viewBox="0 0 24 25" fill="none" xmlns="http://www.w3.org/2000/svg">
<path d="M19 3.45615H18V1.45615H16V3.45615H8V1.45615H6V3.45615H5C3.9 3.45615 3 4.35615 3 5.45615V19.4561C3 20.5561 3.9 21.4561 5 21.4561H19C20.1 21.4561 21 20.5561 21 19.4561V5.45615C21 4.35615 20.1 3.45615 19 3.45615ZM19 19.4561H5V9.45615H19V19.4561ZM5 7.45615V5.45615H19V7.45615H5ZM10.56 17.9161L16.49 11.9861L15.43 10.9261L10.56 15.7961L8.45 13.6861L7.39 14.7461L10.56 17.9161Z" fill="white"/>
</svg>
