<svg width="70" height="70" viewBox="0 0 70 70" fill="none" xmlns="http://www.w3.org/2000/svg">
<path d="M5.83337 17.4854C5.83337 15.8812 7.13421 14.5833 8.73546 14.5833H32.098C32.8676 14.5833 33.6058 14.8891 34.15 15.4333C34.6943 15.9776 35 16.7157 35 17.4854C35 18.2551 34.6943 18.9932 34.15 19.5375C33.6058 20.0817 32.8676 20.3875 32.098 20.3875H8.73546C7.96578 20.3875 7.22762 20.0817 6.68337 19.5375C6.13913 18.9932 5.83337 18.2551 5.83337 17.4854Z" fill="#F8F8F8"/>
<path d="M5.83337 35C5.83337 33.3958 7.13421 32.0979 8.73546 32.0979H61.2646C62.0343 32.0979 62.7725 32.4037 63.3167 32.9479C63.861 33.4921 64.1667 34.2303 64.1667 35C64.1667 35.7697 63.861 36.5078 63.3167 37.0521C62.7725 37.5963 62.0343 37.9021 61.2646 37.9021H8.73546C7.96578 37.9021 7.22762 37.5963 6.68337 37.0521C6.13913 36.5078 5.83337 35.7697 5.83337 35Z" fill="#F8F8F8"/>
<path d="M8.73546 49.6125C7.96578 49.6125 7.22762 49.9182 6.68337 50.4625C6.13913 51.0067 5.83337 51.7449 5.83337 52.5146C5.83337 53.2843 6.13913 54.0224 6.68337 54.5667C7.22762 55.1109 7.96578 55.4167 8.73546 55.4167H43.7646C44.5343 55.4167 45.2725 55.1109 45.8167 54.5667C46.361 54.0224 46.6667 53.2843 46.6667 52.5146C46.6667 51.7449 46.361 51.0067 45.8167 50.4625C45.2725 49.9182 44.5343 49.6125 43.7646 49.6125H8.73546Z" fill="#F8F8F8"/>
</svg>
