<svg width="81" height="80" viewBox="0 0 81 80" fill="none" xmlns="http://www.w3.org/2000/svg">
<path d="M40.5 20C38.0277 20 35.611 20.7331 33.5554 22.1066C31.4998 23.4801 29.8976 25.4324 28.9515 27.7165C28.0054 30.0005 27.7579 32.5139 28.2402 34.9386C28.7225 37.3634 29.913 39.5907 31.6612 41.3388C33.4093 43.087 35.6366 44.2775 38.0614 44.7598C40.4861 45.2421 42.9995 44.9946 45.2835 44.0485C47.5676 43.1024 49.5199 41.5002 50.8934 39.4446C52.2669 37.389 53 34.9723 53 32.5C53 29.1848 51.683 26.0054 49.3388 23.6612C46.9946 21.317 43.8152 20 40.5 20ZM40.5 40C39.0166 40 37.5666 39.5601 36.3332 38.736C35.0999 37.9119 34.1386 36.7406 33.5709 35.3701C33.0032 33.9997 32.8547 32.4917 33.1441 31.0368C33.4335 29.582 34.1478 28.2456 35.1967 27.1967C36.2456 26.1478 37.582 25.4335 39.0368 25.1441C40.4917 24.8547 41.9997 25.0032 43.3701 25.5709C44.7406 26.1386 45.9119 27.0999 46.736 28.3332C47.5601 29.5666 48 31.0166 48 32.5C47.998 34.4885 47.2072 36.395 45.8011 37.8011C44.395 39.2072 42.4885 39.998 40.5 40Z" fill="#F8F8F8"/>
<path d="M40.5 5C33.5777 5 26.8108 7.05271 21.055 10.8986C15.2993 14.7444 10.8133 20.2107 8.16422 26.6061C5.51515 33.0015 4.82203 40.0388 6.17252 46.8282C7.523 53.6175 10.8564 59.8539 15.7513 64.7487C20.6461 69.6436 26.8825 72.977 33.6718 74.3275C40.4612 75.678 47.4985 74.9848 53.8939 72.3358C60.2893 69.6867 65.7556 65.2007 69.6014 59.445C73.4473 53.6892 75.5 46.9223 75.5 40C75.4894 30.7207 71.7985 21.8244 65.237 15.263C58.6756 8.70148 49.7793 5.01059 40.5 5ZM25.5 65.9425V62.5C25.502 60.5115 26.2928 58.605 27.6989 57.1989C29.105 55.7928 31.0115 55.002 33 55H48C49.9885 55.002 51.895 55.7928 53.3011 57.1989C54.7072 58.605 55.498 60.5115 55.5 62.5V65.9425C50.9479 68.6005 45.7713 70.0012 40.5 70.0012C35.2287 70.0012 30.0521 68.6005 25.5 65.9425ZM60.48 62.315C60.4302 59.0358 59.0941 55.9075 56.7598 53.604C54.4254 51.3005 51.2795 50.0062 48 50H33C29.7205 50.0062 26.5746 51.3005 24.2402 53.604C21.9059 55.9075 20.5698 59.0358 20.52 62.315C15.9864 58.2669 12.7893 52.9372 11.3521 47.0317C9.91485 41.1261 10.3052 34.9234 12.4716 29.2446C14.6379 23.5659 18.4781 18.6792 23.4834 15.2314C28.4888 11.7837 34.4234 9.93756 40.5013 9.93756C46.5791 9.93756 52.5137 11.7837 57.5191 15.2314C62.5245 18.6792 66.3646 23.5659 68.5309 29.2446C70.6973 34.9234 71.0877 41.1261 69.6504 47.0317C68.2132 52.9372 65.0161 58.2669 60.4825 62.315H60.48Z" fill="#F8F8F8"/>
</svg>
