<svg width="23" height="24" viewBox="0 0 23 24" fill="none" xmlns="http://www.w3.org/2000/svg">
<path fill-rule="evenodd" clip-rule="evenodd" d="M0.125 11.9562C0.125 14.9548 1.31622 17.8307 3.4366 19.9511C5.55698 22.0715 8.43283 23.2627 11.4315 23.2627C14.4302 23.2627 17.306 22.0715 19.4264 19.9511C21.5468 17.8307 22.738 14.9548 22.738 11.9562C22.738 8.95749 21.5468 6.08164 19.4264 3.96126C17.306 1.84088 14.4302 0.649658 11.4315 0.649658C8.43283 0.649658 5.55698 1.84088 3.4366 3.96126C1.31622 6.08164 0.125 8.95749 0.125 11.9562ZM20.7998 11.9562C20.7998 14.4408 19.8127 16.8236 18.0559 18.5805C16.299 20.3374 13.9161 21.3244 11.4315 21.3244C8.94689 21.3244 6.56404 20.3374 4.80716 18.5805C3.05027 16.8236 2.06326 14.4408 2.06326 11.9562C2.06326 9.47155 3.05027 7.0887 4.80716 5.33181C6.56404 3.57493 8.94689 2.58792 11.4315 2.58792C13.9161 2.58792 16.299 3.57493 18.0559 5.33181C19.8127 7.0887 20.7998 9.47155 20.7998 11.9562Z" fill="white"/>
<path fill-rule="evenodd" clip-rule="evenodd" d="M6.58588 11.9562C6.58588 17.7994 8.51251 22.6166 11.4315 22.6166C14.3505 22.6166 16.2772 17.7994 16.2772 11.9562C16.2772 6.11296 14.3505 1.29575 11.4315 1.29575C8.51251 1.29575 6.58588 6.11296 6.58588 11.9562ZM14.3389 11.9562C14.3389 16.8173 12.7948 20.6783 11.4315 20.6783C10.0683 20.6783 8.52413 16.8173 8.52413 11.9562C8.52413 7.09502 10.0683 3.234 11.4315 3.234C12.7948 3.234 14.3389 7.09502 14.3389 11.9562Z" fill="white"/>
<path d="M3.16418 6.09876L4.46411 4.66187C4.59333 4.77816 4.73417 4.89446 4.88407 5.00688C6.52642 6.23702 9.14823 6.99682 12.0104 6.99682C14.4539 6.99682 16.7294 6.44506 18.3821 5.50049C18.7801 5.27306 19.1341 5.02626 19.4404 4.76395L20.699 6.23832C20.2984 6.58074 19.8448 6.89732 19.3448 7.1816C17.3858 8.30321 14.7782 8.93379 12.0104 8.93379C8.75154 8.93379 5.72398 8.05769 3.72111 6.55748C3.52852 6.41321 3.34268 6.26014 3.16418 6.09876Z" fill="white"/>
<path d="M3.16418 17.8343L4.46411 19.2712C4.59333 19.1536 4.73417 19.0386 4.88407 18.9262C6.52642 17.696 9.14823 16.9362 12.0104 16.9362C14.4539 16.9362 16.7294 17.488 18.3821 18.4325C18.7801 18.66 19.1341 18.9068 19.4404 19.1691L20.699 17.6947C20.278 17.3387 19.8246 17.0229 19.3448 16.7514C17.3858 15.6298 14.7782 14.9992 12.0104 14.9992C8.75154 14.9992 5.72398 15.8753 3.72111 17.3756C3.52852 17.5198 3.34268 17.6729 3.16418 17.8343Z" fill="white"/>
<path d="M0.771057 12.9253V10.987H22.0919V12.9253H0.771057Z" fill="white"/>
</svg>
